<svg id="b9c301bc-6b09-4a44-a346-e5a5f8c5b2d1" data-name="Capa 1" xmlns="http://www.w3.org/2000/svg" viewBox="0 0 481.89 481.89"><circle cx="240.94" cy="240.94" r="240.94" fill="#d90d2b"/><line x1="70.86" y1="311.91" x2="70.86" y2="311.8" fill="#1d1d1b"/><line x1="70.86" y1="170.07" x2="70.86" y2="169.97" fill="none" stroke="#1d1d1b" stroke-miterlimit="10"/><line x1="70.87" y1="255.11" x2="70.86" y2="255.11" fill="#1d1d1b"/><path d="M138,342.15l-3.54,28.35L138,398.85l3.55,28.34,3.54,28.35,3.55,28.35.76,6.14,2.78,22.2,2.3,18.42a211.6,211.6,0,0,1-20-15.87c-.94-.84-1.88-1.69-2.8-2.55q-4.6-4.26-8.93-8.78l-2.44-19.56v0l-3.55-28.32-1.08-8.71h0l-2.45-19.63-3.54-28.34-3.54-28.35,3.54-28.35,3.54-28.34,3.54-28.35,3.39-27.12h0a3.34,3.34,0,0,1,.25-.4l.51-.82h-.61l3.54-28.34,3-23.68c1.6-1.59,3.23-3.14,4.88-4.67q1.38-1.29,2.79-2.55a211.41,211.41,0,0,1,23.9-18.51l-2.64,21.06L153.37,219l-1.23,9.82-3.54,28.34-3.55,28.35-3.54,28.35Z" transform="translate(-35.21 -115.39)" fill="#edf2f4"/><path d="M446.25,483.89l0,0v0Z" transform="translate(-35.21 -115.39)" fill="#1d1d1b"/><path d="M446.29,427.19l-.06.14v-.14Z" transform="translate(-35.21 -115.39)" fill="#1d1d1b"/><path d="M446.29,427.19l-.06.14v-.14Z" transform="translate(-35.21 -115.39)" fill="#1d1d1b"/><polyline points="84.89 142.94 85.04 141.75 85.04 141.74 85.04 141.72" fill="none" stroke="#1d1d1b" stroke-miterlimit="10"/><line x1="70.87" y1="255.11" x2="70.86" y2="255.11" fill="#1d1d1b"/><line x1="70.87" y1="255.11" x2="70.86" y2="255.11" fill="#1d1d1b"/><path d="M276.15,143.73v425.2c-1.19,0-2.37,0-3.55,0a213.26,213.26,0,0,1-24.79-1.85c-1.29-.16-2.57-.35-3.85-.54l-3.24-25.93-.43-3.49-3.11-24.86-3.54-28.34-3.55-28.35-3.54-28.35L223,398.85l-3.54-28.35V561.28a209.38,209.38,0,0,1-28.35-10V161.42q1-.46,2.1-.9a210.92,210.92,0,0,1,26.25-9.15l.92-.25L223,172.07l.94,7.51,2.61,20.84,3.54,28.35,3.54,28.34,3.55,28.35,3.54,28.35,3.54,28.34,3.55,28.35V145.61A213.67,213.67,0,0,1,276.15,143.73Z" transform="translate(-35.21 -115.39)" fill="#edf2f4"/><path d="M389.54,176.46V536.19c-2.33,1.48-4.7,2.92-7.1,4.3l-.16.09a211.38,211.38,0,0,1-21.09,10.66c-1.81.79-3.63,1.56-5.47,2.29l-1.62-12.95-2-16.31-1.51-12L347,483.89l-3.55-28.35-3.54-28.35-3.54-28.34-3.54-28.31V561.28a209,209,0,0,1-28.35,5.77V145.61l.24,0a210.47,210.47,0,0,1,28.11,5.73l1,.28,2.55,20.42,1.32,10.54,2.23,17.81,3.54,28.35L347,257.11l3.55,28.35,3.54,28.35,3.54,28.34,3.54,28.31v-209a213.47,213.47,0,0,1,21.09,10.65Q386,174.2,389.54,176.46Z" transform="translate(-35.21 -115.39)" fill="#edf2f4"/><path d="M476.65,285.46q-1-2.82-2.07-5.61a211.1,211.1,0,0,0-10.35-22.74q-1.51-2.87-3.11-5.67l-.71,5.67-3.55,28.35L454,308.1l-.71,5.71-3.54,28.34-3.54,28.35h0V228.75a212.68,212.68,0,0,0-25.55-28.33h-2.79V512.23h2.8q4.6-4.26,8.93-8.78a212.07,212.07,0,0,0,16.61-19.54v0h0a212,212,0,0,0,17.61-27.66l.09-.69,3.54-28.35L471,398.85l3.54-28.35,3.54-28.35,3.55-28.34,1-8.13Q480.16,295.36,476.65,285.46ZM446.23,427.33v-.14h.06Z" transform="translate(-35.21 -115.39)" fill="#edf2f4"/><path d="M106.07,228.77v56.59a.18.18,0,0,0,0,.1h0V427.19h0a.54.54,0,0,0,0,.11v56.59q-6.41-8.53-12-17.69h0q-3.17-5.24-6-10.65a210.53,210.53,0,0,1-10.35-22.76V279.87a210.59,210.59,0,0,1,10.36-22.76c1-1.91,2-3.79,3.1-5.66h0A211.71,211.71,0,0,1,106.07,228.77Z" transform="translate(-35.21 -115.39)" fill="#edf2f4"/></svg>